<?xml version="1.0" encoding="utf-8"?>
<svg version="1.1" xmlns:xlink="http://www.w3.org/1999/xlink" width="16px" height="20px" xmlns="http://www.w3.org/2000/svg">
  <g transform="matrix(1 0 0 1 -17 -115 )">
    <path d="M 8 1.8636363636363633  L 1.7777777777777777 3.276363636363637  L 1.7777777777777777 11.626363636363637  C 1.7777980926283006 12.842094276143898  2.3718581903144784 13.977391609479128  3.360888888888889 14.651818181818184  L 8 17.815454545454546  L 12.639111111111113 14.651818181818184  C 13.627879838662588 13.977570311630627  14.221904784724526 12.842681270748804  14.222222222222221 11.627272727272725  L 14.222222222222221 3.276363636363637  L 8 1.8636363636363633  Z M 0 2.5472727272727274  C 7.148122749672186E-05 2.1212657294849437  0.2893853013863937 1.7524435136083973  0.696 1.6600000000000001  L 8 0  L 15.303999999999998 1.6600000000000001  C 15.710614698613606 1.7524435136083971  15.999928518772501 2.121265729484943  16 2.5472727272727274  L 16 11.626363636363635  C 15.999870457006125 13.45004577999817  15.108604122779386 15.15300976101932  13.624888888888888 16.164545454545454  L 8 20  L 2.375111111111111 16.164545454545454  C 0.891657863872442 15.15318844116158  0.0004266911818019044 13.45063276929122  0 11.627272727272725  L 0 2.5472727272727274  Z M 10.61155555555556 12.76818181818182  L 8 11.363636363636365  L 5.387555555555555 12.76818181818182  L 5.886222222222222 9.793636363636363  L 3.7733333333333334 7.6863636363636365  L 6.694222222222223 7.251818181818183  L 8 4.545454545454545  L 9.306666666666667 7.251818181818183  L 12.226666666666668 7.6863636363636365  L 10.11377777777778 9.793636363636363  L 10.61155555555556 12.76818181818182  Z " fill-rule="nonzero" fill="#807f83" stroke="none" transform="matrix(1 0 0 1 17 115 )" />
  </g>
</svg>