<?xml version="1.0" encoding="utf-8"?>
<svg version="1.1" xmlns:xlink="http://www.w3.org/1999/xlink" width="22px" height="22px" xmlns="http://www.w3.org/2000/svg">
  <g transform="matrix(1 0 0 1 -16 -214 )">
    <path d="M 18.857142857142858 7.857142857142858  L 22 14.142857142857144  C 22 15.887142857142855  20.60142857142857 17.285714285714285  18.857142857142858 17.285714285714285  L 17.285714285714285 17.285714285714285  C 15.541428571428574 17.285714285714285  14.142857142857144 15.887142857142855  14.142857142857144 14.142857142857144  L 17.285714285714285 7.857142857142858  L 15.714285714285715 7.857142857142858  C 14.849999999999998 7.857142857142858  14.142857142857144 7.15  14.142857142857144 6.285714285714286  L 12.571428571428571 6.285714285714286  L 12.571428571428571 18.857142857142858  C 13.231428571428571 18.857142857142858  14.142857142857144 19.564285714285713  14.142857142857144 20.42857142857143  L 15.714285714285715 20.42857142857143  C 16.374285714285715 20.42857142857143  17.285714285714285 21.135714285714283  17.285714285714285 22  L 4.714285714285714 22  C 4.714285714285714 21.135714285714283  5.625714285714286 20.42857142857143  6.285714285714286 20.42857142857143  L 7.857142857142858 20.42857142857143  C 7.857142857142858 19.564285714285713  8.768571428571429 18.857142857142858  9.428571428571429 18.857142857142858  L 9.475714285714286 18.857142857142858  L 9.428571428571429 6.285714285714286  L 7.857142857142858 6.285714285714286  C 7.857142857142858 7.15  7.15 7.857142857142858  6.285714285714286 7.857142857142858  L 4.714285714285714 7.857142857142858  L 7.857142857142858 14.142857142857144  C 7.857142857142858 15.887142857142855  6.458571428571429 17.285714285714285  4.714285714285714 17.285714285714285  L 3.142857142857143 17.285714285714285  C 1.3985714285714286 17.285714285714285  0 15.887142857142855  0 14.142857142857144  L 3.142857142857143 7.857142857142858  L 1.5714285714285714 7.857142857142858  L 1.5714285714285714 6.285714285714286  L 6.285714285714286 6.285714285714286  C 6.285714285714286 5.421428571428572  6.992857142857144 4.714285714285714  7.857142857142858 4.714285714285714  L 14.142857142857144 4.714285714285714  C 15.007142857142858 4.714285714285714  15.714285714285715 5.421428571428572  15.714285714285715 6.285714285714286  L 20.42857142857143 6.285714285714286  L 20.42857142857143 7.857142857142858  L 18.857142857142858 7.857142857142858  Z M 13.357142857142856 2.357142857142857  C 13.357142857142856 3.6614285714285715  12.304285714285713 4.714285714285714  11 4.714285714285714  C 9.695714285714287 4.714285714285714  8.642857142857142 3.6614285714285715  8.642857142857142 2.357142857142857  C 8.642857142857142 1.0528571428571427  9.695714285714287 0  11 0  C 12.304285714285713 0  13.357142857142856 1.0528571428571427  13.357142857142856 2.357142857142857  Z M 6.285714285714286 14.142857142857144  L 3.928571428571429 9.428571428571429  L 1.5714285714285714 14.142857142857144  L 6.285714285714286 14.142857142857144  Z M 15.714285714285715 14.142857142857144  L 20.42857142857143 14.142857142857144  L 18.07142857142857 9.428571428571429  L 15.714285714285715 14.142857142857144  Z " fill-rule="nonzero" fill="#807f83" stroke="none" transform="matrix(1 0 0 1 16 214 )" />
  </g>
</svg>