<?xml version="1.0" encoding="utf-8"?>
<svg version="1.1" xmlns:xlink="http://www.w3.org/1999/xlink" width="18px" height="22px" xmlns="http://www.w3.org/2000/svg">
  <g transform="matrix(1 0 0 1 -17 -64 )">
    <path d="M 15 6.5  C 15 3.1859375000000005  12.314062499999999 0.5  9 0.5  C 5.685937500000001 0.5  3 3.1859374999999996  3 6.5  C 3 9.814062499999999  5.685937500000001 12.500000000000002  9 12.500000000000002  C 12.314062499999999 12.500000000000002  15 9.814062499999999  15 6.5  Z M 12.75 6.5  C 12.75 8.571874999999999  11.071874999999999 10.25  9 10.25  C 6.928125000000001 10.25  5.25 8.571874999999999  5.25 6.5  C 5.25 4.4281250000000005  6.928125000000001 2.75  9 2.75  C 11.071874999999999 2.75  12.75 4.428125  12.75 6.5  Z M 9 14  C 7.987500000000001 14  7.0078125 13.803125000000001  6.079687499999999 13.409374999999999  C 5.184374999999999 13.029687499999998  4.3828125 12.490624999999998  3.698437499999999 11.8015625  C 3.6328124999999982 11.735937499999997  3.5671874999999984 11.670312499999998  3.5062499999999996 11.6  L 0 17.75  L 4.5 17.75  L 6.75 21.5  L 9 16.540625  L 10.1953125 13.90625  C 9.801562500000001 13.9671875  9.403125000000001 14  9 14  Z M 18 17.75  L 14.498437500000001 11.604687499999999  C 14.4375 11.670312499999998  14.371875000000003 11.740624999999998  14.306249999999999 11.806249999999999  C 13.621875 12.490625000000001  12.8203125 13.034374999999999  11.9296875 13.409374999999999  L 10.78125 15.931249999999999  L 9.754687500000001 18.2  L 11.25 21.5  L 13.5 17.75  L 18 17.75  Z " fill-rule="nonzero" fill="#807f83" stroke="none" transform="matrix(1 0 0 1 17 64 )" />
  </g>
</svg>