<?xml version="1.0" encoding="utf-8"?>
<svg version="1.1"
  xmlns:xlink="http://www.w3.org/1999/xlink" width="20px" height="20px"
  xmlns="http://www.w3.org/2000/svg">
  <g transform="matrix(1 0 0 1 -1812 -1787 )">
    <path d="M 11.9453125 0.08109375  C 12.28125 0.23171875000000003  12.5 0.5671875  12.5 0.9375  L 12.5 2.8125  L 13.125 2.8125  C 15.71484375 2.8125  17.8125 4.91015625  17.8125 7.5  L 17.8125 13.89453125  C 19.08203125 14.29296875  20 15.4765625  20 16.875  C 20 18.6015625  18.6015625 20  16.875 20  C 15.1484375 20  13.75 18.6015625  13.75 16.875  C 13.75 15.4765625  14.66796875 14.29296875  15.9375 13.89453125  L 15.9375 7.5  C 15.9375 5.9453125  14.6796875 4.6875  13.125 4.6875  L 12.5 4.6875  L 12.5 6.5625  C 12.5 6.93359375  12.28125 7.26953125  11.9453125 7.41796875  C 11.60546875 7.5703125  11.17578125 7.5078125  10.93359375 7.2578125  L 7.80859375 4.4453125  C 7.61328125 4.26953125  7.5 4.015625  7.5 3.75  C 7.5 3.484375  7.61328125 3.2308593749999996  7.80859375 3.0531249999999996  L 10.93359375 0.2406640625  C 11.17578125 -0.006996093750000001  11.60546875 -0.0694921875  11.9453125 0.0811328125  Z M 15.625 16.875  C 15.625 17.56640625  16.18359375 18.125  16.875 18.125  C 17.56640625 18.125  18.125 17.56640625  18.125 16.875  C 18.125 16.18359375  17.56640625 15.625  16.875 15.625  C 16.18359375 15.625  15.625 16.18359375  15.625 16.875  Z M 4.0625 6.10546875  L 4.0625 13.89453125  C 5.33203125 14.29296875  6.25 15.4765625  6.25 16.875  C 6.25 18.6015625  4.8515625 20  3.125 20  C 1.39921875 20  0 18.6015625  0 16.875  C 0 15.4765625  0.9195312499999999 14.29296875  2.1875 13.89453125  L 2.1875 6.10546875  C 0.9195312499999999 5.70703125  0 4.5234375  0 3.125  C 0 1.39921875  1.39921875 0  3.125 0  C 4.8515625 0  6.25 1.39921875  6.25 3.125  C 6.25 4.5234375  5.33203125 5.70703125  4.0625 6.10546875  Z M 4.375 3.125  C 4.375 2.434765625  3.815234375 1.875  3.125 1.875  C 2.434765625 1.875  1.875 2.434765625  1.875 3.125  C 1.875 3.815234375  2.434765625 4.375  3.125 4.375  C 3.815234375 4.375  4.375 3.815234375  4.375 3.125  Z M 4.375 16.875  C 4.375 16.18359375  3.815234375 15.625  3.125 15.625  C 2.434765625 15.625  1.875 16.18359375  1.875 16.875  C 1.875 17.56640625  2.434765625 18.125  3.125 18.125  C 3.815234375 18.125  4.375 17.56640625  4.375 16.875  Z " fill-rule="nonzero" fill="#807f83" stroke="none" transform="matrix(1 0 0 1 1812 1787 )" />
  </g>
</svg>
