<?xml version="1.0" encoding="utf-8"?>
<svg version="1.1" xmlns:xlink="http://www.w3.org/1999/xlink" width="17px" height="22px" xmlns="http://www.w3.org/2000/svg">
  <g transform="matrix(1 0 0 1 -17 -164 )">
    <path d="M 13.8125 5.5  C 13.8125 2.4673000000000003  11.4293125 0  8.5 0  C 5.5706875 0  3.1875 2.4673000000000003  3.1875 5.5  L 3.1875 7.699999999999999  L 2.125 7.699999999999999  C 0.9530625000000003 7.699999999999999  0 8.6867  0 9.9  L 0 19.8  C 0 21.0133  0.9530625000000003 22  2.125 22  L 14.875 22  C 16.046937500000002 22  17 21.0133  17 19.8  L 17 9.9  C 17 8.6867  16.046937500000002 7.699999999999999  14.875 7.699999999999999  L 13.8125 7.699999999999999  L 13.8125 5.5  Z M 5.3125 7.699999999999999  L 5.3125 5.5  C 5.3125 3.6806  6.742625 2.2  8.5 2.2  C 10.257375 2.2  11.6875 3.6806  11.6875 5.5  L 11.6875 7.699999999999999  L 5.3125 7.699999999999999  Z M 14.875 10  L 14.877125000000003 19.8  L 9.5625 19.8  L 9.5625 17.2942  C 10.1946875 16.9125  10.625 16.210700000000003  10.625 15.399999999999999  C 10.625 14.1867  9.6719375 13.2  8.5 13.2  C 7.328062500000001 13.2  6.375 14.1867  6.375 15.399999999999999  C 6.375 16.209600000000002  6.805312499999999 16.9125  7.4375 17.2942  L 7.4375 19.8  L 2.125 19.8  L 2.125 10  L 14.875 10  Z " fill-rule="nonzero" fill="#807f83" stroke="none" transform="matrix(1 0 0 1 17 164 )" />
  </g>
</svg>